<svg width="29" height="13" viewBox="0 0 29 13" fill="none" xmlns="http://www.w3.org/2000/svg">
<path d="M0.448242 1.60938C0.174072 1.85228 0.015625 2.13518 0.015625 2.43848V10.5635C0.015794 10.8666 0.174219 11.1488 0.448242 11.3916C0.164632 11.1487 0.000174787 10.8668 0 10.5635V2.43848C0 2.13498 0.164479 1.85244 0.448242 1.60938ZM18 1.8125V11.1885H3.09473C2.2661 11.1884 1.79253 10.8487 1.79199 10.5635V2.43848C1.79199 2.15316 2.26562 1.81261 3.09473 1.8125H18Z" fill="white"/>
<path d="M21.8186 0.00390625C23.1863 0.0691499 24.2744 1.13354 24.2747 2.4375V4.875H25.137C25.6134 4.875 26 5.23896 26.0002 5.6875V7.3125C26.0002 7.76123 25.6135 8.125 25.137 8.125H24.2747V10.5625C24.2747 11.8666 23.1865 12.9318 21.8186 12.9971L21.6858 13H2.70142L2.56763 12.9971C1.19995 12.9316 0.112549 11.8665 0.112549 10.5625V2.4375C0.112775 1.13367 1.2001 0.0693458 2.56763 0.00390625L2.70142 0H21.6858L21.8186 0.00390625ZM2.70142 0.8125C1.7484 0.8125 0.975087 1.54022 0.974854 2.4375V10.5625C0.974854 11.46 1.74825 12.1875 2.70142 12.1875H21.6858C22.6389 12.1874 23.4114 11.4599 23.4114 10.5625V2.4375C23.4111 1.54029 22.6387 0.812606 21.6858 0.8125H2.70142Z" fill="white"/>
</svg>
