<svg width="29" height="13" viewBox="0 0 29 13" fill="none" xmlns="http://www.w3.org/2000/svg">
<path d="M12.8662 1.8125V11.1885H2.99707C2.2778 11.1884 1.86668 10.8487 1.86621 10.5635V2.43848C1.86621 2.15314 2.27739 1.81257 2.99707 1.8125H12.8662Z" fill="white"/>
<path d="M21.7998 0.00390625C23.1735 0.0691499 24.2664 1.13354 24.2666 2.4375V4.875H25.1328C25.6113 4.875 25.9998 5.23896 26 5.6875V7.3125C26 7.76123 25.6115 8.125 25.1328 8.125H24.2666V10.5625C24.2666 11.8666 23.1736 12.9318 21.7998 12.9971L21.667 13H2.59961L2.46582 12.9971C1.09217 12.9317 0 11.8666 0 10.5625V2.4375C0.000226988 1.13364 1.09232 0.0692973 2.46582 0.00390625L2.59961 0H21.667L21.7998 0.00390625ZM2.59961 0.8125C1.64257 0.812619 0.866445 1.5403 0.866211 2.4375V10.5625C0.866211 11.4599 1.64242 12.1874 2.59961 12.1875H21.667C22.6241 12.1873 23.3994 11.4598 23.3994 10.5625V2.4375C23.3992 1.54037 22.6239 0.812744 21.667 0.8125H2.59961Z" fill="white"/>
</svg>
