<svg width="29" height="13" viewBox="0 0 29 13" fill="none" xmlns="http://www.w3.org/2000/svg">
<path d="M11.8027 0.106445L11.7139 0.250977L11.4014 0.8125H2.59961C1.6425 0.812698 0.866211 1.54016 0.866211 2.4375V10.5625C0.866211 11.4598 1.6425 12.1873 2.59961 12.1875H10.1758C10.2369 12.4839 10.3651 12.7617 10.5498 13H2.59961L2.46582 12.9971C1.09223 12.9316 0 11.8665 0 10.5625V2.4375C0 1.13349 1.09223 0.068388 2.46582 0.00292969L2.59961 0H11.8799C11.8529 0.0349373 11.827 0.0703754 11.8027 0.106445ZM21.8008 0.00292969C23.1744 0.0683575 24.2666 1.13347 24.2666 2.4375V4.875H25.1338C25.6122 4.87523 26 5.23891 26 5.6875V7.3125C26 7.76109 25.6122 8.12477 25.1338 8.125H24.2666V10.5625C24.2666 11.8665 23.1744 12.9316 21.8008 12.9971L21.667 13H13.5947C13.7085 12.8527 13.798 12.6944 13.8633 12.5342L14.0039 12.1875H21.667C22.6241 12.1873 23.4004 11.4599 23.4004 10.5625V2.4375C23.4004 1.54014 22.6241 0.812665 21.667 0.8125H15.2969C15.2359 0.516722 15.1089 0.238568 14.9238 0H21.667L21.8008 0.00292969Z" fill="white"/>
<path d="M13.3115 0.888672C13.3846 0.865243 13.4604 0.873527 13.5244 0.90332C13.6532 0.963562 13.7374 1.1095 13.71 1.28027L13.1758 4.58984C13.1702 4.62498 13.1794 4.65678 13.1943 4.67773C13.2091 4.6983 13.2254 4.7041 13.2373 4.7041H14.8115C14.9356 4.7041 15.0304 4.77991 15.0801 4.87109C15.1297 4.96245 15.142 5.08039 15.0977 5.18945L12.3574 11.9209C12.3239 12.0031 12.2681 12.0663 12.1953 12.0996C12.1233 12.1325 12.0442 12.1317 11.9756 12.1074C11.8362 12.058 11.7391 11.9122 11.7617 11.7324L12.3008 7.45508C12.3051 7.42048 12.295 7.38998 12.2803 7.37012C12.2657 7.3505 12.2499 7.34473 12.2383 7.34473H10.1885C10.0543 7.34473 9.95653 7.25757 9.91016 7.1582C9.86381 7.05887 9.85949 6.9321 9.9209 6.82129L13.1338 1.04004C13.1753 0.965306 13.2374 0.91245 13.3115 0.888672Z" fill="white" stroke="white" stroke-width="0.25"/>
</svg>
