<svg width="29" height="13" viewBox="0 0 29 13" fill="none" xmlns="http://www.w3.org/2000/svg">
<path d="M21.8662 1.8125V11.1875H2.64648C2.15004 11.1875 1.86637 10.8478 1.86621 10.5625V2.4375C1.86621 2.15214 2.1499 1.8125 2.64648 1.8125H21.8662ZM0.810547 10.7178C0.812674 10.7375 0.817391 10.7568 0.820312 10.7764C0.81792 10.7604 0.813384 10.7447 0.811523 10.7285L0.810547 10.7178ZM2.2793 12.1543C2.22562 12.1447 2.17297 12.1327 2.12109 12.1191C2.17296 12.1327 2.22563 12.1447 2.2793 12.1543ZM0.811523 2.27637C0.805618 2.3293 0.802734 2.3832 0.802734 2.4375C0.802734 2.3832 0.805619 2.3293 0.811523 2.27637Z" fill="white"/>
<path d="M21.7998 0.00292969C23.1736 0.0681802 24.2666 1.13335 24.2666 2.4375V4.875H25.1328C25.6115 4.875 26 5.23877 26 5.6875V7.3125C25.9999 7.76113 25.6114 8.125 25.1328 8.125H24.2666V10.5625C24.2665 11.8665 23.1735 12.9318 21.7998 12.9971L21.666 13H2.59961L2.46582 12.9971C1.09213 12.9318 0.000124338 11.8665 0 10.5625V2.4375C0 1.13338 1.09206 0.0682148 2.46582 0.00292969L2.59961 0H21.666L21.7998 0.00292969ZM2.59961 0.8125C1.64232 0.812505 0.866211 1.54004 0.866211 2.4375V10.5625C0.866339 11.4599 1.6424 12.1875 2.59961 12.1875H21.666C22.6232 12.1875 23.3993 11.4599 23.3994 10.5625V2.4375C23.3994 1.54004 22.6233 0.8125 21.666 0.8125H2.59961Z" fill="white"/>
</svg>
